<?xml version="1.0" encoding="utf-8"?>
<!-- Generator: Adobe Illustrator 22.1.0, SVG Export Plug-In . SVG Version: 6.00 Build 0)  -->
<svg version="1.1" id="Layer_1" xmlns="http://www.w3.org/2000/svg" xmlns:xlink="http://www.w3.org/1999/xlink" x="0px" y="0px"
	 viewBox="0 0 512 512" style="enable-background:new 0 0 512 512;" xml:space="preserve">
<path d="M491.3,353c-27.5,0-49.9-22.4-49.9-49.9V185.5C441.4,83.2,358.2,0,256,0S70.6,83.2,70.6,185.5v117.7
	c0,27.5-22.4,49.9-49.9,49.9C9.3,353,0,362.3,0,373.7c0,11.4,9.3,20.7,20.7,20.7h470.6c11.4,0,20.7-9.3,20.7-20.7
	C512,362.3,502.7,353,491.3,353z M97.1,353c9.4-14.4,14.9-31.5,14.9-49.9V185.5c0-79.4,64.6-144,144-144s144,64.6,144,144v117.7
	c0,18.4,5.5,35.6,14.9,49.9H97.1z M314.6,478.2C302,499.9,279.3,512,255.9,512c-11.5,0-23.2-2.9-33.9-9.1
	c-10.2-5.9-18.7-14.4-24.6-24.6c-5.7-9.9-2.4-22.5,7.5-28.3c9.9-5.7,22.5-2.4,28.3,7.5c2.3,4,5.6,7.3,9.6,9.6
	c12.6,7.3,28.8,3,36.1-9.6c5.7-9.9,18.4-13.2,28.3-7.5C317,455.7,320.3,468.3,314.6,478.2z"/>
</svg>
