<?xml version="1.0" encoding="utf-8"?>
<!-- Generator: Adobe Illustrator 22.1.0, SVG Export Plug-In . SVG Version: 6.00 Build 0)  -->
<svg version="1.1" id="Layer_1" xmlns="http://www.w3.org/2000/svg" xmlns:xlink="http://www.w3.org/1999/xlink" x="0px" y="0px"
	 viewBox="0 0 512 512" style="enable-background:new 0 0 512 512;" xml:space="preserve">
<path d="M433.3,328.3c2.3-5.4,7.5-8.8,13.3-8.9h1.9c35,0,63.5-28.5,63.5-63.5c0-35-28.5-63.5-63.5-63.5H445c-4.9,0-9.4-2.5-12.1-6.5
	c-0.3-1.5-0.7-2.9-1.3-4.2c-2.4-5.5-1.3-11.8,2.9-16.1l1.1-1.1c0,0,0.1-0.1,0.1-0.1c12-12,18.6-27.9,18.6-44.9
	c0-16.9-6.6-32.8-18.6-44.8c0,0-0.1-0.1-0.1-0.1c-12-12-27.9-18.6-44.9-18.6c0,0,0,0,0,0c-17,0-32.9,6.6-44.9,18.6l-1.2,1.2
	c-4.3,4.2-10.6,5.3-16.1,2.9c-0.1,0-0.1-0.1-0.2-0.1c-5.4-2.3-8.8-7.5-8.9-13.3v-1.9C319.5,28.5,291,0,256,0
	c-35,0-63.5,28.5-63.5,63.5V67c0,4.9-2.5,9.4-6.5,12.1c-1.5,0.3-2.9,0.7-4.2,1.3c-5.5,2.4-11.8,1.3-16.1-2.9l-1.2-1.2
	c-12-12-27.9-18.6-44.9-18.6c0,0,0,0,0,0c-17,0-32.9,6.6-44.9,18.6c-12,12-18.6,27.9-18.6,44.9c0,17,6.6,32.9,18.6,44.9l1.2,1.2
	c4.2,4.3,5.3,10.6,2.9,16.1c-0.2,0.4-0.3,0.8-0.5,1.2c-2.1,5.6-7.2,9.3-13.2,9.6h-1.6c-35,0-63.5,28.5-63.5,63.5
	c0,35,28.5,63.5,63.5,63.5H67c5.8,0,11.1,3.5,13.4,8.9c0,0.1,0.1,0.1,0.1,0.2c2.4,5.5,1.3,11.8-2.9,16.1l-1.2,1.2
	c0,0-0.1,0.1-0.1,0.1c-12,12-18.5,27.9-18.5,44.8c0,17,6.6,32.9,18.6,44.9c0,0,0.1,0.1,0.1,0.1c24.8,24.7,65,24.6,89.7-0.1l1.2-1.2
	c4.3-4.2,10.6-5.3,16.1-2.9c0.4,0.2,0.8,0.3,1.2,0.5c5.6,2.1,9.3,7.2,9.6,13.2v1.6c0,35,28.5,63.5,63.5,63.5
	c35,0,63.5-28.5,63.5-63.5V445c0-5.8,3.5-11.1,8.9-13.4c0.1,0,0.1-0.1,0.2-0.1c5.5-2.4,11.8-1.3,16.1,2.9l1.2,1.2
	c12,12,27.9,18.6,44.9,18.6c0,0,0,0,0,0c17,0,32.9-6.6,44.9-18.6c24.7-24.8,24.7-65,0-89.7l-1.2-1.2c-4.2-4.3-5.3-10.6-2.9-16.1
	C433.3,328.5,433.3,328.4,433.3,328.3z M406.6,373.6c0.1,0.1,0.1,0.1,0.2,0.2l1.3,1.3c8.6,8.6,8.6,22.6,0,31.3
	c-4.2,4.2-9.7,6.5-15.6,6.5c0,0,0,0,0,0c-5.9,0-11.4-2.3-15.6-6.5l-1.3-1.3c-0.1-0.1-0.1-0.1-0.2-0.2
	c-16.4-16.1-40.6-20.5-61.7-11.2c-20.5,8.8-33.7,28.9-33.8,51.3v3.6c0,12.2-9.9,22.1-22.1,22.1c-12.2,0-22.1-9.9-22.1-22.1v-1.9
	c0-0.2,0-0.3,0-0.5c-0.5-22.9-14.7-42.9-36-51c-20.9-9-44.9-4.5-61.2,11.5c-0.1,0.1-0.1,0.1-0.2,0.2L137,408
	c-8.6,8.6-22.6,8.6-31.3,0c0,0-0.1,0-0.1-0.1c-4.2-4.2-6.4-9.7-6.4-15.6c0-5.9,2.3-11.5,6.5-15.6c0,0,0,0,0.1-0.1l1.2-1.2
	c0.1-0.1,0.1-0.1,0.2-0.2c16.1-16.4,20.5-40.6,11.2-61.6c-8.8-20.5-28.9-33.7-51.3-33.8h-3.6c-12.2,0-22.1-9.9-22.1-22.1
	c0-12.2,9.9-22.1,22.1-22.1h1.9c0.2,0,0.3,0,0.5,0c22.9-0.5,42.9-14.7,51-36c8.9-20.9,4.5-44.8-11.5-61.1c-0.1-0.1-0.1-0.1-0.2-0.2
	L104,137c-4.2-4.2-6.5-9.7-6.5-15.6c0-5.9,2.3-11.5,6.5-15.7c4.2-4.2,9.7-6.5,15.6-6.5c0,0,0,0,0,0c5.9,0,11.4,2.3,15.6,6.5l1.3,1.3
	c0.1,0.1,0.1,0.1,0.2,0.2c15.4,15.1,37.7,19.9,57.7,12.8c1.9-0.2,3.8-0.7,5.5-1.5c20.5-8.8,33.8-28.9,33.9-51.3v-3.6
	c0-12.2,9.9-22.1,22.1-22.1s22.1,9.9,22.1,22.1v2c0.1,22.3,13.4,42.4,33.8,51.2c21,9.2,45.2,4.8,61.7-11.2c0.1-0.1,0.1-0.1,0.2-0.2
	l1.3-1.3c4.2-4.2,9.7-6.5,15.6-6.5c0,0,0,0,0,0c5.9,0,11.4,2.3,15.6,6.4c0,0,0,0,0.1,0.1c4.2,4.2,6.5,9.7,6.5,15.6
	c0,5.9-2.3,11.4-6.4,15.6c0,0,0,0-0.1,0.1l-1.3,1.3c-0.1,0.1-0.1,0.1-0.2,0.2c-15.1,15.4-19.9,37.7-12.8,57.7
	c0.2,1.9,0.7,3.8,1.5,5.5c8.8,20.5,28.9,33.8,51.3,33.9h3.6c12.2,0,22.1,9.9,22.1,22.1c0,12.2-9.9,22.1-22.1,22.1h-2
	c-22.3,0.1-42.4,13.4-51.2,33.8C386.1,333,390.5,357.1,406.6,373.6z M256,171.1c-46.8,0-84.9,38.1-84.9,84.9
	c0,46.8,38.1,84.9,84.9,84.9s84.9-38.1,84.9-84.9S302.8,171.1,256,171.1z M256,299.5c-24,0-43.5-19.5-43.5-43.5
	c0-24,19.5-43.5,43.5-43.5c24,0,43.5,19.5,43.5,43.5C299.5,280,280,299.5,256,299.5z"/>
</svg>
