<?xml version="1.0" encoding="utf-8"?>
<!-- Generator: Adobe Illustrator 22.1.0, SVG Export Plug-In . SVG Version: 6.00 Build 0)  -->
<svg version="1.1" id="Layer_1" xmlns="http://www.w3.org/2000/svg" xmlns:xlink="http://www.w3.org/1999/xlink" x="0px" y="0px"
	 viewBox="0 0 512 512" style="enable-background:new 0 0 512 512;" xml:space="preserve">
<path d="M433.6,282.1V439c0,40.2-32.7,73-73,73H73c-40.2,0-73-32.7-73-73V151.4c0-40.2,32.7-73,73-73h156.9
	c11.4,0,20.7,9.3,20.7,20.7s-9.3,20.7-20.7,20.7H73c-17.4,0-31.6,14.2-31.6,31.6V439c0,17.4,14.2,31.6,31.6,31.6h287.6
	c17.4,0,31.6-14.2,31.6-31.6V282.1c0-11.4,9.3-20.7,20.7-20.7C424.3,261.5,433.6,270.7,433.6,282.1z M512,20.6c0-0.6,0-1.3-0.1-1.9
	c0-0.3-0.1-0.6-0.1-1c-0.1-0.3-0.1-0.7-0.2-1c-0.1-0.4-0.2-0.7-0.3-1.1c-0.1-0.3-0.1-0.6-0.2-0.9c-0.1-0.3-0.2-0.7-0.4-1
	c-0.1-0.3-0.2-0.6-0.3-0.9c-0.1-0.3-0.3-0.6-0.4-0.9c-0.1-0.3-0.3-0.6-0.4-0.9c-0.2-0.3-0.3-0.6-0.5-0.9c-0.2-0.3-0.3-0.6-0.5-0.9
	c-0.2-0.3-0.5-0.6-0.7-1c-0.2-0.2-0.3-0.5-0.5-0.7c-0.9-1.1-1.8-2-2.9-2.9c-0.2-0.2-0.4-0.3-0.7-0.5c-0.3-0.2-0.6-0.5-1-0.7
	c-0.3-0.2-0.6-0.3-0.8-0.5c-0.3-0.2-0.6-0.4-0.9-0.5c-0.3-0.2-0.6-0.3-0.9-0.4c-0.3-0.2-0.6-0.3-1-0.4c-0.3-0.1-0.6-0.2-0.8-0.3
	c-0.4-0.1-0.7-0.3-1.1-0.4c-0.3-0.1-0.6-0.1-0.8-0.2c-0.4-0.1-0.7-0.2-1.1-0.3c-0.3-0.1-0.6-0.1-1-0.1c-0.3-0.1-0.7-0.1-1-0.2
	C492.8,0,492.2,0,491.7,0c-0.1,0-0.2,0-0.4,0H334.4c-11.4,0-20.7,9.3-20.7,20.7s9.3,20.7,20.7,20.7h106.9L189.1,293.7
	c-8.1,8.1-8.1,21.2,0,29.2c4,4,9.3,6.1,14.6,6.1c5.3,0,10.6-2,14.6-6.1L470.6,70.6v106.9c0,11.4,9.3,20.7,20.7,20.7
	c11.4,0,20.7-9.3,20.7-20.7L512,20.6C512,20.6,512,20.6,512,20.6z"/>
</svg>
