<?xml version="1.0" encoding="utf-8"?>
<!-- Generator: Adobe Illustrator 22.1.0, SVG Export Plug-In . SVG Version: 6.00 Build 0)  -->
<svg version="1.1" id="Layer_1" xmlns="http://www.w3.org/2000/svg" xmlns:xlink="http://www.w3.org/1999/xlink" x="0px" y="0px"
	 viewBox="0 0 512 512" style="enable-background:new 0 0 512 512;" xml:space="preserve">
<path d="M11.4,156.8l235.3,117.7c2.9,1.5,6.1,2.2,9.2,2.2c3.2,0,6.3-0.7,9.2-2.2l235.3-117.7c7-3.5,11.4-10.7,11.4-18.5
	c0-7.8-4.4-15-11.4-18.5L265.2,2.2c-5.8-2.9-12.7-2.9-18.5,0L11.4,119.8C4.4,123.3,0,130.5,0,138.3C0,146.2,4.4,153.3,11.4,156.8z
	 M256,43.8l189.1,94.5L256,232.9L66.9,138.3L256,43.8z M509.8,364.4c5.1,10.2,1,22.6-9.2,27.7L265.3,509.8c-2.9,1.5-6.1,2.2-9.2,2.2
	c-3.2,0-6.3-0.7-9.2-2.2L11.4,392.2C1.2,387-2.9,374.6,2.2,364.4c5.1-10.2,17.5-14.4,27.7-9.2l226.1,113l226.1-113
	C492.3,350.1,504.7,354.2,509.8,364.4z M509.8,246.8c5.1,10.2,1,22.6-9.2,27.7L265.3,392.2c-2.9,1.5-6.1,2.2-9.2,2.2
	c-3.2,0-6.3-0.7-9.2-2.2L11.4,274.5C1.2,269.4-2.9,257,2.2,246.8c5.1-10.2,17.5-14.4,27.7-9.2l226.1,113l226.1-113
	C492.3,232.4,504.7,236.5,509.8,246.8z"/>
</svg>
