<?xml version="1.0" encoding="utf-8"?>
<!-- Generator: Adobe Illustrator 22.1.0, SVG Export Plug-In . SVG Version: 6.00 Build 0)  -->
<svg version="1.1" id="Layer_1" xmlns="http://www.w3.org/2000/svg" xmlns:xlink="http://www.w3.org/1999/xlink" x="0px" y="0px"
	 viewBox="0 0 512 512" style="enable-background:new 0 0 512 512;" xml:space="preserve">
<path d="M495.1,192.3c-10.7-14.6-26.5-24.1-44.4-26.8c-3.6-0.5-7.2-0.8-10.8-0.8H327.5V91.3c0-50.3-40.9-91.3-91.3-91.3
	c-8.2,0-15.6,4.8-18.9,12.3l-88.7,199.5H71.5c-37.4,0-67.7,30.4-67.7,67.7v164.7c0,37.4,30.4,67.7,67.7,67.7h70.6c0,0,0,0,0,0h265.3
	c0.2,0,0.4,0,0.6,0c16.1,0,31.6-5.7,43.9-16.1c12.5-10.6,20.7-25.3,23.1-41.4l32.5-211.8C510.2,224.7,505.8,206.9,495.1,192.3z
	 M45.1,444.3V279.5c0-14.5,11.8-26.4,26.4-26.4h49.9v217.5H71.5C56.9,470.6,45.1,458.8,45.1,444.3z M466.6,236.4l-32.5,211.8
	c-1.9,12.8-13.1,22.4-26.1,22.4c-0.1,0-0.2,0-0.3,0c-0.1,0-0.2,0-0.2,0H162.8V236.9L248.9,43c21.4,5.6,37.2,25.1,37.2,48.3v94.1
	c0,11.4,9.3,20.7,20.7,20.7H440c0.1,0,0.2,0,0.2,0c1.4,0,2.9,0.1,4.3,0.3c7,1.1,13.1,4.8,17.3,10.4
	C465.9,222.5,467.7,229.5,466.6,236.4z"/>
</svg>
