<?xml version="1.0" encoding="utf-8"?>
<!-- Generator: Adobe Illustrator 22.1.0, SVG Export Plug-In . SVG Version: 6.00 Build 0)  -->
<svg version="1.1" id="Layer_1" xmlns="http://www.w3.org/2000/svg" xmlns:xlink="http://www.w3.org/1999/xlink" x="0px" y="0px"
	 viewBox="0 0 512 512" style="enable-background:new 0 0 512 512;" xml:space="preserve">
<path d="M512,256c0,11.4-9.3,20.7-20.7,20.7H20.7C9.3,276.7,0,267.4,0,256c0-11.4,9.3-20.7,20.7-20.7h470.6
	C502.7,235.3,512,244.6,512,256z M20.7,119.8h470.6c11.4,0,20.7-9.3,20.7-20.7s-9.3-20.7-20.7-20.7H20.7C9.3,78.4,0,87.7,0,99.1
	S9.3,119.8,20.7,119.8z M491.3,392.2H20.7C9.3,392.2,0,401.5,0,412.9c0,11.4,9.3,20.7,20.7,20.7h470.6c11.4,0,20.7-9.3,20.7-20.7
	C512,401.5,502.7,392.2,491.3,392.2z"/>
</svg>
