<?xml version="1.0" encoding="utf-8"?>
<!-- Generator: Adobe Illustrator 22.1.0, SVG Export Plug-In . SVG Version: 6.00 Build 0)  -->
<svg version="1.1" id="Layer_1" xmlns="http://www.w3.org/2000/svg" xmlns:xlink="http://www.w3.org/1999/xlink" x="0px" y="0px"
	 viewBox="0 0 512 512" style="enable-background:new 0 0 512 512;" xml:space="preserve">
<path d="M439,0H73C32.7,0,0,32.7,0,73v366c0,40.2,32.7,73,73,73H439c40.2,0,73-32.7,73-73V73C512,32.7,479.3,0,439,0z M41.4,439V73
	c0-17.4,14.2-31.6,31.6-31.6H439c17.4,0,31.6,14.2,31.6,31.6v211.5l-95.4-95.4c-8.1-8.1-21.2-8.1-29.2,0L65.3,469.7
	C51.6,466.3,41.4,453.8,41.4,439z M439,470.6H122.9L360.6,233l110,110v96C470.6,456.5,456.5,470.6,439,470.6z M164.5,224.4
	c33,0,59.9-26.9,59.9-59.9s-26.9-59.9-59.9-59.9s-59.9,26.9-59.9,59.9C104.6,197.5,131.5,224.4,164.5,224.4z M164.5,146
	c10.2,0,18.5,8.3,18.5,18.5s-8.3,18.5-18.5,18.5s-18.5-8.3-18.5-18.5S154.3,146,164.5,146z"/>
</svg>
