<?xml version="1.0" encoding="utf-8"?>
<!-- Generator: Adobe Illustrator 22.1.0, SVG Export Plug-In . SVG Version: 6.00 Build 0)  -->
<svg version="1.1" id="Layer_1" xmlns="http://www.w3.org/2000/svg" xmlns:xlink="http://www.w3.org/1999/xlink" x="0px" y="0px"
	 viewBox="0 0 512 512" style="enable-background:new 0 0 512 512;" xml:space="preserve">
<path d="M406.8,62.4C366.5,22.2,313,0,256,0S145.5,22.2,105.2,62.4C65,102.7,42.8,156.3,42.8,213.2c0,37.7,11,76.9,32.6,116.5
	c16.8,30.8,40.2,62.1,69.3,92.9c49.2,51.9,97.8,84.5,99.8,85.9c3.5,2.3,7.5,3.5,11.5,3.5s8-1.2,11.5-3.5c2-1.4,50.6-34,99.8-85.9
	c29.2-30.8,52.5-62.1,69.3-92.9c21.6-39.7,32.6-78.9,32.6-116.5C469.2,156.3,447,102.7,406.8,62.4z M256,465.9
	C215.8,436.2,84.2,329.7,84.2,213.2c0-94.8,77.1-171.9,171.8-171.9s171.9,77.1,171.9,171.9C427.9,329.7,296.2,436.2,256,465.9z
	 M256,128.4c-46.8,0-84.9,38.1-84.9,84.9c0,46.8,38.1,84.9,84.9,84.9s84.9-38.1,84.9-84.9C340.9,166.4,302.8,128.4,256,128.4z
	 M256,256.7c-24,0-43.5-19.5-43.5-43.5c0-24,19.5-43.5,43.5-43.5c24,0,43.5,19.5,43.5,43.5C299.5,237.2,280,256.7,256,256.7z"/>
</svg>
