<?xml version="1.0" encoding="utf-8"?>
<!-- Generator: Adobe Illustrator 22.1.0, SVG Export Plug-In . SVG Version: 6.00 Build 0)  -->
<svg version="1.1" id="Layer_1" xmlns="http://www.w3.org/2000/svg" xmlns:xlink="http://www.w3.org/1999/xlink" x="0px" y="0px"
	 viewBox="0 0 512 512" style="enable-background:new 0 0 512 512;" xml:space="preserve">
<path d="M512,256c0,11.4-9.3,20.7-20.7,20.7H276.7v214.6c0,11.4-9.3,20.7-20.7,20.7c-11.4,0-20.7-9.3-20.7-20.7V276.7H20.7
	C9.3,276.7,0,267.4,0,256c0-11.4,9.3-20.7,20.7-20.7h214.6V20.7C235.3,9.3,244.6,0,256,0c11.4,0,20.7,9.3,20.7,20.7v214.6h214.6
	C502.7,235.3,512,244.6,512,256z"/>
</svg>
