<?xml version="1.0" encoding="utf-8"?>
<!-- Generator: Adobe Illustrator 22.1.0, SVG Export Plug-In . SVG Version: 6.00 Build 0)  -->
<svg version="1.1" id="Layer_1" xmlns="http://www.w3.org/2000/svg" xmlns:xlink="http://www.w3.org/1999/xlink" x="0px" y="0px"
	 viewBox="0 0 512 512" style="enable-background:new 0 0 512 512;" xml:space="preserve">
<path d="M488.4,279.6c0,62.1-24.2,120.5-68.1,164.3C376.4,487.8,318.1,512,256,512c0,0,0,0,0,0c-62.1,0-120.5-24.2-164.3-68.1
	C47.7,400,23.6,341.6,23.6,279.6s24.2-120.4,68.1-164.3c8.1-8.1,21.2-8.1,29.2,0c8.1,8.1,8.1,21.2,0,29.2
	c-74.5,74.5-74.5,195.7,0,270.2c37.2,37.3,86.2,55.9,135.1,55.9c48.9,0,97.8-18.6,135.1-55.9c36.1-36.1,56-84.1,56-135.1
	c0-51-19.9-99-55.9-135.1c-8.1-8.1-8.1-21.2,0-29.2c8.1-8.1,21.2-8.1,29.2,0C464.3,159.1,488.4,217.5,488.4,279.6z M256.1,276.6
	c11.4,0,20.7-9.3,20.7-20.7V20.7c0-11.4-9.3-20.7-20.7-20.7c-11.4,0-20.7,9.3-20.7,20.7V256C235.4,267.4,244.7,276.6,256.1,276.6z"
	/>
</svg>
