<?xml version="1.0" encoding="utf-8"?>
<!-- Generator: Adobe Illustrator 22.1.0, SVG Export Plug-In . SVG Version: 6.00 Build 0)  -->
<svg version="1.1" id="Layer_1" xmlns="http://www.w3.org/2000/svg" xmlns:xlink="http://www.w3.org/1999/xlink" x="0px" y="0px"
	 viewBox="0 0 512 512" style="enable-background:new 0 0 512 512;" xml:space="preserve">
<path d="M397.2,329.4c-26.1,0-49.6,11-66.3,28.6L202,282.9c2.6-8.5,4.1-17.5,4.1-26.9c0-9.4-1.4-18.4-4.1-26.9l128.8-75.2
	c16.7,17.6,40.2,28.7,66.3,28.7c50.3,0,91.3-40.9,91.3-91.3c0-50.3-40.9-91.3-91.3-91.3c-50.3,0-91.3,40.9-91.3,91.3
	c0,9.4,1.4,18.4,4.1,26.9l-128.8,75.2c-16.7-17.6-40.2-28.7-66.3-28.7c-50.3,0-91.3,40.9-91.3,91.3s40.9,91.3,91.3,91.3
	c26.1,0,49.7-11,66.3-28.7L310,393.7c-2.7,8.5-4.1,17.6-4.1,27c0,50.3,40.9,91.3,91.3,91.3s91.3-40.9,91.3-91.3
	C488.5,370.4,447.5,329.4,397.2,329.4z M397.2,41.4c27.5,0,49.9,22.4,49.9,49.9c0,27.5-22.4,49.9-49.9,49.9
	c-18.2,0-34.1-9.8-42.9-24.4c-0.1-0.1-0.1-0.3-0.2-0.5c-0.1-0.1-0.1-0.2-0.2-0.3c-4.2-7.3-6.6-15.8-6.6-24.8
	C347.3,63.8,369.7,41.4,397.2,41.4z M114.8,305.9c-27.5,0-49.9-22.4-49.9-49.9c0-27.5,22.4-49.9,49.9-49.9
	c18.2,0,34.1,9.8,42.8,24.3c0.1,0.2,0.2,0.3,0.2,0.5c0.1,0.2,0.2,0.3,0.3,0.5c4.1,7.3,6.5,15.7,6.5,24.6c0,9-2.4,17.5-6.6,24.8
	c-0.1,0.1-0.1,0.2-0.2,0.3c-0.1,0.1-0.1,0.3-0.2,0.4C148.9,296.1,133,305.9,114.8,305.9z M397.2,470.6c-27.5,0-49.9-22.4-49.9-49.9
	c0-8.3,2-16.1,5.6-23c0.5-0.7,1-1.4,1.5-2.2c0.4-0.7,0.8-1.5,1.1-2.2c8.9-13.6,24.3-22.6,41.7-22.6c27.5,0,49.9,22.4,49.9,49.9
	C447.1,448.2,424.7,470.6,397.2,470.6z"/>
</svg>
