<?xml version="1.0" encoding="utf-8"?>
<!-- Generator: Adobe Illustrator 22.1.0, SVG Export Plug-In . SVG Version: 6.00 Build 0)  -->
<svg version="1.1" id="Layer_1" xmlns="http://www.w3.org/2000/svg" xmlns:xlink="http://www.w3.org/1999/xlink" x="0px" y="0px"
	 viewBox="0 0 512 512" style="enable-background:new 0 0 512 512;" xml:space="preserve">
<path d="M505.9,476.7c8.1,8.1,8.1,21.2,0,29.2c-4,4-9.3,6.1-14.6,6.1c-5.3,0-10.6-2-14.6-6.1L256,285.2L35.3,505.9
	c-4,4-9.3,6.1-14.6,6.1c-5.3,0-10.6-2-14.6-6.1c-8.1-8.1-8.1-21.2,0-29.2L226.8,256L6.1,35.3C-2,27.2-2,14.1,6.1,6.1
	C14.1-2,27.2-2,35.3,6.1L256,226.8L476.7,6.1c8.1-8.1,21.2-8.1,29.2,0c8.1,8.1,8.1,21.2,0,29.2L285.2,256L505.9,476.7z"/>
</svg>
