<?xml version="1.0" encoding="utf-8"?>
<!-- Generator: Adobe Illustrator 22.1.0, SVG Export Plug-In . SVG Version: 6.00 Build 0)  -->
<svg version="1.1" id="Layer_1" xmlns="http://www.w3.org/2000/svg" xmlns:xlink="http://www.w3.org/1999/xlink" x="0px" y="0px"
	 viewBox="0 0 512 512" style="enable-background:new 0 0 512 512;" xml:space="preserve">
<path d="M467.8,94.1h-97V67.7c0-37.4-30.4-67.7-67.7-67.7h-94.1c-37.4,0-67.7,30.4-67.7,67.7v26.4h-97c-11.4,0-20.7,9.3-20.7,20.7
	s9.3,20.7,20.7,20.7h26.4v308.8c0,37.4,30.4,67.7,67.7,67.7h235.3c37.4,0,67.7-30.4,67.7-67.7V135.5h26.4c11.4,0,20.7-9.3,20.7-20.7
	S479.2,94.1,467.8,94.1z M182.6,67.7c0-14.5,11.8-26.4,26.4-26.4h94.1c14.5,0,26.4,11.8,26.4,26.4v26.4H182.6V67.7z M400,444.3
	c0,14.5-11.8,26.4-26.4,26.4H138.3c-14.5,0-26.4-11.8-26.4-26.4V135.5h49.9c0,0,0,0,0,0s0,0,0,0h188.2c0,0,0,0,0,0s0,0,0,0H400
	V444.3z M229.6,232.5v141.2c0,11.4-9.3,20.7-20.7,20.7c-11.4,0-20.7-9.3-20.7-20.7V232.5c0-11.4,9.3-20.7,20.7-20.7
	C220.4,211.8,229.6,221,229.6,232.5z M323.7,232.5v141.2c0,11.4-9.3,20.7-20.7,20.7c-11.4,0-20.7-9.3-20.7-20.7V232.5
	c0-11.4,9.3-20.7,20.7-20.7C314.5,211.8,323.7,221,323.7,232.5z"/>
</svg>
