<?xml version="1.0" encoding="utf-8"?>
<!-- Generator: Adobe Illustrator 22.1.0, SVG Export Plug-In . SVG Version: 6.00 Build 0)  -->
<svg version="1.1" id="Layer_1" xmlns="http://www.w3.org/2000/svg" xmlns:xlink="http://www.w3.org/1999/xlink" x="0px" y="0px"
	 viewBox="0 0 512 512" style="enable-background:new 0 0 512 512;" xml:space="preserve">
<path d="M511.4,465.2v26.1c0,11.4-9.3,20.7-20.7,20.7c-11.4,0-20.7-9.3-20.7-20.7v-26.1c0-59.5-98-109.7-214.1-109.7
	S41.9,405.8,41.9,465.2v26.1c0,11.4-9.3,20.7-20.7,20.7s-20.7-9.3-20.7-20.7v-26.1c0-84.7,112.2-151.1,255.4-151.1
	S511.4,380.5,511.4,465.2z M133.5,143.4c-10.1-68.2,37.1-131.9,105.3-142c12.2-1.8,24.5-1.8,36.7,0c26.7,4,51,16.2,70.1,35.3
	s31.3,43.3,35.3,70.1c10.1,68.2-37.1,131.9-105.3,142c-6.2,0.9-12.4,1.4-18.6,1.4c-26.6,0-52.4-8.5-74.2-24.6
	C155.8,205.5,138.4,176.4,133.5,143.4z M174.4,137.3c3.3,22.1,15,41.6,32.9,54.9c17.9,13.3,40,18.8,62.1,15.6
	c45.6-6.8,77.2-49.4,70.5-95c-5.4-36.7-33.8-65-70.5-70.5c-4.1-0.6-8.2-0.9-12.3-0.9s-8.2,0.3-12.3,0.9
	C199.2,49,167.6,91.7,174.4,137.3z"/>
</svg>
