<?xml version="1.0" encoding="utf-8"?>
<!-- Generator: Adobe Illustrator 22.1.0, SVG Export Plug-In . SVG Version: 6.00 Build 0)  -->
<svg version="1.1" id="Layer_1" xmlns="http://www.w3.org/2000/svg" xmlns:xlink="http://www.w3.org/1999/xlink" x="0px" y="0px"
	 viewBox="0 0 512 512" style="enable-background:new 0 0 512 512;" xml:space="preserve">
<path d="M503.2,382c-0.1-0.1-0.1-0.2-0.2-0.3L312.3,63.2c0,0,0-0.1-0.1-0.1c-9.1-15-23.5-25.6-40.6-29.8
	c-17.1-4.2-34.7-1.5-49.7,7.6c-9,5.5-16.6,13.1-22.1,22.1c0,0,0,0.1-0.1,0.1L9,381.7c-0.1,0.1-0.1,0.2-0.2,0.3
	c-8.8,15.2-11.1,32.9-6.6,49.9c4.5,17,15.4,31.1,30.6,39.9c9.8,5.6,20.9,8.7,32.1,8.8c0.1,0,0.2,0,0.2,0h381.5c0.1,0,0.2,0,0.2,0
	c36.2-0.4,65.4-30.2,65-66.4C511.9,402.8,508.8,391.7,503.2,382z M446.6,439.2H65.4c-4.1-0.1-8.2-1.2-11.8-3.3
	c-5.6-3.3-9.7-8.5-11.3-14.8c-1.7-6.2-0.8-12.8,2.4-18.4L235.2,84.5c2-3.3,4.8-6.1,8.2-8.2c5.6-3.4,12.1-4.4,18.4-2.8
	c6.3,1.5,11.6,5.4,15,11l190.6,318.2c2,3.6,3.1,7.7,3.2,11.8C470.8,428,460,439,446.6,439.2z M276.7,189.6v90.1
	c0,11.4-9.3,20.7-20.7,20.7c-11.4,0-20.7-9.3-20.7-20.7v-90.1c0-11.4,9.3-20.7,20.7-20.7C267.4,168.9,276.7,178.2,276.7,189.6z
	 M270.6,355.2c3.8,3.9,6.1,9.2,6.1,14.6c0,5.5-2.2,10.8-6.1,14.6c-3.9,3.9-9.2,6.1-14.6,6.1c-5.4,0-10.8-2.2-14.6-6.1
	c-3.8-3.9-6.1-9.2-6.1-14.6c0-5.4,2.2-10.8,6.1-14.6c3.9-3.9,9.2-6.1,14.6-6.1C261.5,349.1,266.8,351.3,270.6,355.2z"/>
</svg>
