<?xml version="1.0" encoding="utf-8"?>
<!-- Generator: Adobe Illustrator 22.1.0, SVG Export Plug-In . SVG Version: 6.00 Build 0)  -->
<svg version="1.1" id="Layer_1" xmlns="http://www.w3.org/2000/svg" xmlns:xlink="http://www.w3.org/1999/xlink" x="0px" y="0px"
	 viewBox="0 0 512 512" style="enable-background:new 0 0 512 512;" xml:space="preserve">
<path d="M437,75C388.7,26.6,324.4,0,256,0S123.3,26.6,75,75S0,187.6,0,256s26.6,132.7,75,181c48.4,48.4,112.6,75,181,75
	s132.7-26.6,181-75c48.4-48.4,75-112.6,75-181S485.4,123.3,437,75z M256,470.6c-118.3,0-214.6-96.3-214.6-214.6S137.7,41.4,256,41.4
	S470.6,137.7,470.6,256S374.4,470.6,256,470.6z M235.3,256v-94.1c0-11.4,9.3-20.7,20.7-20.7c11.4,0,20.7,9.3,20.7,20.7V256
	c0,11.4-9.3,20.7-20.7,20.7C244.6,276.7,235.3,267.4,235.3,256z M270.6,335.5c3.9,3.9,6.1,9.2,6.1,14.6c0,5.4-2.2,10.8-6.1,14.6
	c-3.9,3.9-9.2,6.1-14.6,6.1s-10.8-2.2-14.6-6.1c-3.9-3.9-6.1-9.2-6.1-14.6c0-5.4,2.2-10.8,6.1-14.6c3.9-3.9,9.2-6.1,14.6-6.1
	S266.8,331.7,270.6,335.5z"/>
</svg>
